<svg xmlns="http://www.w3.org/2000/svg" xmlns:xlink="http://www.w3.org/1999/xlink" version="1.1" x="0px" y="0px" viewBox="0 0 100 125" style="enable-background:new 0 0 100 100;" xml:space="preserve"><path d="M88.1,23.9l-34.6-20c-2.2-1.3-5-1.3-7.2,0l-34.6,20C9.4,25.2,8,27.5,8,30.1v40c0,2.6,1.4,5,3.6,6.2l34.6,20  c1.1,0.6,2.3,1,3.6,1s2.5-0.3,3.6-1l34.6-20c2.2-1.3,3.6-3.7,3.6-6.2v-40C91.7,27.5,90.3,25.2,88.1,23.9z M67.4,71.5h-35V28.6h4.8  V26h2.6v2.6h2.8V26h2.6v2.6h3.2V26h2.6v2.6h3.3V26h2.6v2.6h3V26h2.6v2.6h5.1v13H65V31h-2.7v2.1h-2.6V31h-3v2.1h-2.6V31h-3.3v2.1  h-2.6V31h-3.2v2.1h-2.6V31h-2.8v2.1h-2.6V31h-2.4v38.1H65v-5h2.4V71.5z M38.3,59.5v-2.8h14.1v2.8H38.3z M51.3,62.7v2.8H38.3v-2.8  H51.3z M38.3,53.2v-2.8h18.2v2.8H38.3z M38.3,47.2v-2.8h23.8v2.8H38.3z M38.3,40.9V38h23.8v2.8H38.3z M60.8,63.9l-6.2,1.2l0.7-6.3  l11.2-12.2l5.5,5L60.8,63.9z M73.8,49.7l-1.1,1.2l-5.5-5l1.1-1.2c0.6-0.6,1.5-0.7,2.1-0.2l3.4,3.1C74.4,48,74.4,49,73.8,49.7z"/><polygon points="55.6,62.5 57.2,63.9 60.2,63.3 55.9,59.4 "/></svg>